<?xml version="1.0" standalone="no"?><!DOCTYPE svg PUBLIC "-//W3C//DTD SVG 1.1//EN" "http://www.w3.org/Graphics/SVG/1.1/DTD/svg11.dtd"><svg t="1628058533703" class="icon" viewBox="0 0 6883 1024" version="1.1" xmlns="http://www.w3.org/2000/svg" p-id="4092" width="150" height="45" xmlns:xlink="http://www.w3.org/1999/xlink"><defs><style type="text/css"></style></defs><path d="M3106.56 159.032889h207.132444V650.638222a123.676444 123.676444 0 0 1-123.676444 123.676445h-83.456v167.68h-143.246222v-167.68h-80.241778v-0.739556h-126.890667V159.004444h207.132445V90.282667h143.246222v68.750222z m0 262.940444h63.886222V238.933333h-63.914666v183.04z m0 269.880889a83.342222 83.342222 0 0 0 63.886222-80.952889V501.873778h-63.886222v189.980444z m-207.132444 2.56h63.886222V501.873778h-63.886222v192.540444z m0-272.440889h63.886222V238.933333h-63.886222v183.04z m-171.150223-242.204444h16.896l-82.773333 171.292444 75.207111 216.917334-85.134222-0.170667v374.186667h-143.246222V652.202667l-142.506667 0.227555 206.392889-392.760889h-178.915556v-79.928889h119.495111L2494.862222 90.282667h117.390222L2631.111111 179.768889h97.166222zM1942.044444 862.065778h-117.703111v-50.744889h194.531556a83.541333 83.541333 0 0 1-76.8 50.744889z m-462.193777 0h201.244444v-50.744889h-201.244444v50.744889z m0-130.645334h201.244444v-50.744888h-201.244444v50.744888z m344.490666 0h201.216v-50.744888h-201.216v50.744888z m201.216-130.673777h143.246223v217.571555c0 68.266667-55.352889 123.676444-123.648 123.676445H1336.604444V600.746667H2025.557333z m-493.027555-273.351111h95.004444l-35.214222 75.377777h83.057778l-137.443556 162.247111 26.88-101.973333h-80.099555l47.815111-135.651555z m348.444444 0h95.004445l-35.214223 75.377777h83.057778l-137.472 162.247111 26.908445-101.973333h-80.128l47.843555-135.651555z m182.897778-110.933334a104.931556 104.931556 0 0 1 104.96 104.903111V557.624889H2025.528889V369.891556a73.528889 73.528889 0 0 0-73.528889-73.528889h-127.715556v261.290666H1681.066667v-261.290666h-201.216v261.290666H1336.604444V216.433778H1681.066667V170.211556H1336.604444V90.282667h823.608889v79.928889H1824.341333v46.222222h239.559111z" p-id="4093" fill="#ffffff"></path><path d="M4713.415111 470.471111v119.466667h-354.986667v64.853333h385.706667v163.157333h-23.210667v-34.133333h-362.496v33.450667h-22.528V470.471111h377.514667z m-354.986667 291.498667h362.496v-86.698667h-362.496v86.698667z m0-192.512h331.776V491.633778h-331.776v77.824z m448.512-176.128v111.274666h-22.528v-90.112h-520.192v90.112h-22.528v-111.274666h281.258667c-8.874667-21.162667-17.749333-40.277333-27.306667-56.661334l22.528-4.096c9.557333 17.749333 19.114667 37.546667 27.306667 60.757334h261.461333z m-501.077333-116.053334a404.906667 404.906667 0 0 1-62.805333 80.554667l-19.797334-12.288c43.690667-43.690667 76.458667-93.525333 98.304-150.186667l22.528 4.778667a604.501333 604.501333 0 0 1-25.941333 55.978667h202.752v21.162666h-134.485333c20.48 26.624 36.181333 51.2 47.104 74.410667l-21.162667 8.192a719.928889 719.928889 0 0 0-51.882667-82.602667h-54.613333z m295.594667 0a429.880889 429.880889 0 0 1-45.738667 70.314667l-20.48-12.970667c34.133333-40.277333 59.392-86.698667 75.776-138.581333l22.528 4.778667c-6.826667 19.797333-13.653333 38.229333-21.845333 55.296h210.944v21.162666h-137.898667c19.114667 24.576 34.133333 47.786667 45.056 68.949334l-21.162667 7.509333a522.695111 522.695111 0 0 0-49.834666-76.458667h-57.344z m557.738666-44.373333h315.392v297.642667h-146.090666v102.4h162.474666v22.528h-162.474666v117.418666h189.098666v22.528h-406.186666v-22.528h193.877333V655.473778h-162.474667v-22.528h162.474667v-102.4h-146.090667V232.903111z m292.181334 275.797333v-115.370666h-122.88v115.370666h122.88z m-146.090667 0v-115.370666h-123.562667v115.370666h123.562667z m-123.562667-136.533333h123.562667V254.748444h-123.562667v117.418667z m146.773334-117.418667v117.418667h122.88V254.748444h-122.88z m-418.474667 206.848h86.698667v-187.050666h-95.573334v-22.528h213.674667v22.528h-94.890667v187.050666h86.698667v23.210667h-86.698667v186.368a1264.810667 1264.810667 0 0 0 88.746667-35.498667v23.210667a1250.417778 1250.417778 0 0 1-205.482667 68.266667l-5.461333-21.845334c34.133333-7.509333 66.901333-16.384 98.986667-26.624V484.807111h-86.698667v-23.210667z m707.925333-223.914666h544.768v23.210666h-264.192v283.989334h290.133334v22.528h-290.133334v251.221333h-23.210666v-251.221333h-284.672v-22.528h284.672v-283.989334h-257.365334v-23.210666z m63.488 85.333333a1539.043556 1539.043556 0 0 1 77.141334 161.109333l-21.845334 10.24c-23.893333-60.074667-49.152-114.005333-76.458666-160.426666l21.162666-10.922667z m417.109334-4.778667l21.845333 9.557334a883.712 883.712 0 0 1-88.064 165.888l-20.48-10.922667c36.864-55.296 65.536-109.909333 86.698667-164.522667z m692.906666 225.962667V819.313778h-23.210666v-43.690667H6376.391111V819.313778h-23.210667v-275.114667h438.272z m-415.061333 208.213333h391.850667V566.727111H6376.391111v185.685333z m-78.506667-290.133333l-4.778666-21.845333c73.728-35.498667 152.234667-116.053333 236.202666-240.981334l22.528 8.192c-72.362667 106.496-143.36 182.954667-212.992 230.741334 159.744-6.144 304.469333-15.701333 432.810667-29.354667-32.768-44.373333-66.218667-85.333333-100.352-122.197333l21.162667-10.922667a1817.315556 1817.315556 0 0 1 174.08 227.328l-21.845334 10.922667c-19.114667-29.354667-37.546667-57.344-56.661333-83.285334-145.408 13.653333-308.565333 23.893333-490.154667 31.402667z" p-id="4094" fill="#ffffff"></path><path d="M3768.462222 512.426667m-42.24 0a42.24 42.24 0 1 0 84.48 0 42.24 42.24 0 1 0-84.48 0Z" p-id="4095" fill="#ffffff"></path><path d="M883.484444 832.398222l-232.96-232.96 4.408889-4.437333 134.741334-134.712889-270.336-270.336-93.212445 93.212444-17.351111-2.048a28.131556 28.131556 0 0 0-33.621333 4.693334l-114.204445 114.204444a28.188444 28.188444 0 0 0-4.693333 33.592889l2.048 17.351111-93.411556 93.383111 270.364445 270.336 133.944889-133.916444 4.750222-4.778667 231.224889 231.253334a495.616 495.616 0 0 1-302.677333 102.542222c-274.915556 0-497.777778-222.862222-497.777778-497.777778s222.862222-497.777778 497.777778-497.777778 497.777778 222.862222 497.777777 497.777778c0 122.026667-43.918222 233.813333-116.821333 320.398222z m-463.160888-2.787555l-270.336-270.336-13.909334 35.242666a43.377778 43.377778 0 0 0 9.671111 46.563556l192.796445 192.768c12.231111 12.202667 30.492444 15.985778 46.535111 9.671111l35.271111-13.909333zM804.124444 445.809778l13.937778-35.271111a43.406222 43.406222 0 0 0-9.671111-46.535111l-192.796444-192.739556a43.235556 43.235556 0 0 0-46.563556-9.671111l-35.271111 13.909333 270.364444 270.307556z" p-id="4096" fill="#ffffff"></path></svg>